<?xml version="1.0" encoding="utf-8"?>
<!-- Generator: Adobe Illustrator 17.0.0, SVG Export Plug-In . SVG Version: 6.00 Build 0)  -->
<!DOCTYPE svg PUBLIC "-//W3C//DTD SVG 1.1//EN" "http://www.w3.org/Graphics/SVG/1.1/DTD/svg11.dtd">
<svg version="1.1" id="Layer_1" xmlns="http://www.w3.org/2000/svg" xmlns:xlink="http://www.w3.org/1999/xlink" x="0px" y="0px"
	 width="411.488px" height="41.291px" viewBox="0 0 411.488 41.291" enable-background="new 0 0 411.488 41.291"
	 xml:space="preserve">
<path fill-rule="evenodd" clip-rule="evenodd" fill="#FFFFFF" d="M43.51,19.801c-1.463,4.496-5.576,7.988-10.792,7.988
	c-5.531,0-9.252-3.449-10.743-7.891c1.554,4.139,5.779,7.104,10.751,7.104C37.734,27.001,41.988,23.989,43.51,19.801L43.51,19.801z
	 M21.95,12.944C23.42,8.463,26.901,5,32.717,5c5.404,0,9.378,3.509,10.817,8.042C42.033,8.816,37.759,5.77,32.725,5.77
	C27.725,5.77,23.482,8.771,21.95,12.944L21.95,12.944z"/>
<path fill-rule="evenodd" clip-rule="evenodd" fill="#FFFFFF" d="M32.945,11.838c0.068-0.104,0.279-0.037,0.429-0.032
	c0.2,0.005,0.152,0.293,0.427,0.237c0.275-0.06,0.28,0.259,0.674,0.247c0.394-0.012-0.08,0.135-0.08,0.135s-0.244-0.115-0.4-0.036
	c-0.085,0.04,0.028-0.024-0.11-0.139c-0.217-0.175-0.19,0.035-0.55-0.269C33.077,11.765,32.832,12.005,32.945,11.838L32.945,11.838z
	 M34.922,19.791c0.157,0.061,0.355,0.217,0.442,0.45c0.214,0.557-0.103,0.105-0.103,0.944c0,0.774-0.22,0.649-0.22,0.649
	s-0.045,0.914-0.527,1.474c-0.305,0.3-0.066,0.552-0.066,0.552s-0.104,0.057-0.252,0.717c-0.05,0.217,0.229,0.551,0.472,0.464
	c0.18-0.06-0.44-0.12,0.231-0.4c0.259-0.104,0.047-0.311,0.047-0.311s0.439-0.033,0.683-0.684c0.435,0.061,0.272-0.198,1.166-0.388
	c0.235-0.05,0.287-0.119,0.258-0.337c-0.028-0.218,0.29,0.03,1.176-0.857c0.699-0.704,0.444-0.86,0.927-1.115
	c0.51-0.269,0.555,0.023,0.729-0.195c0.388-0.499,0.252-0.469,0.413-0.787l0.115-0.175L34.922,19.791L34.922,19.791z M30.015,12.405
	c-0.145-0.35-0.133-0.924,0.175-1.451c0.194-0.33,0.714-0.477,1.164-0.304c0.505-0.394,0.629,0.03,1.076-0.16
	c0.591-0.252,0.26,0.666,0.831,0.898c0.235-0.617-0.537-1.084-0.052-1.376c0.344-0.208,0.607-0.337,0.749-0.617
	c0.2-0.399,0.282-0.687,0.437-0.741c0.359-0.12,0.282-0.459,0.282-0.459s0.382,0.112,0.68-0.163c-0.228-0.12-0.56-0.225-0.472-0.465
	c0.1-0.284,0.874,0.293,1.101-0.172c-0.459-0.197-0.925-0.622-1.206-0.722c-0.192,0.205-0.31,0.122-0.559-0.07
	c-0.42-0.329-0.454-0.015-0.717-0.239c-0.209,0.412,0.107,0.38,0.202,0.482c0.27,0.29-0.272-0.262-0.219,0.48
	c0.013,0.192-0.275,0.229-0.488-0.19c-0.112-0.215-1.001-0.17-1.138-0.379c0.124-0.24,1.171-1.101,2.779-0.896
	c-2.335-0.902-5.492,0.085-5.524,0.427c-0.315,0.195-0.207,0.417-0.362,0.469c-0.273,0.088-0.57,0.911-0.57,0.911
	s0.17,0.108-0.357,0.692c-0.437,0.482-0.564,1.206-0.564,1.206s0.287,0.519,0.232,1.118c-0.042,0.453-0.062,0.116,0.14,0.448
	c0.117,0.192,0.245,0.866,0.323,0.604c0.148-0.5-0.272-0.965-0.203-1.464c0.018,0.061,0.163-0.199,0.155,0.036
	c-0.014,0.617,0.774,1.803,0.774,1.803s-0.293,0.294,0.014,0.294H30.015L30.015,12.405z"/>
<path fill="#FFFFFF" d="M13.273,14.058H11.5l0.267,0.31v2.295c0,0.517-0.347,0.735-0.866,0.735c-0.519,0-0.865-0.219-0.865-0.735
	v-2.295l0.264-0.31H8.528l0.265,0.31v2.333c0,1.144,0.649,1.588,2.108,1.588c1.456,0,2.108-0.444,2.108-1.588v-2.333L13.273,14.058
	L13.273,14.058z"/>
<polygon fill="#FFFFFF" points="19.431,14.058 17.937,14.058 18.2,14.368 18.2,16.46 16.053,14.058 14.71,14.058 14.974,14.368 
	14.974,17.896 14.71,18.206 16.205,18.206 15.94,17.896 15.94,15.769 18.219,18.206 19.167,18.206 19.167,14.368 19.431,14.058 "/>
<polygon fill="#FFFFFF" points="22.878,18.206 22.611,17.896 22.611,14.368 22.878,14.058 21.092,14.058 21.359,14.368 
	21.359,17.896 21.092,18.206 22.878,18.206 "/>
<polygon fill="#FFFFFF" points="28.767,14.058 27.266,14.058 27.532,14.368 26.473,16.652 25.448,14.368 25.714,14.058 
	23.946,14.058 25.907,18.206 26.788,18.206 28.767,14.058 "/>
<polygon fill="#FFFFFF" points="33.786,18.206 33.786,17.083 33.471,17.342 31.318,17.342 31.318,16.546 32.682,16.546 
	32.991,16.805 32.991,15.456 32.682,15.719 31.318,15.719 31.318,14.922 33.471,14.922 33.786,15.186 33.786,14.058 29.821,14.058 
	30.087,14.368 30.087,17.896 29.821,18.206 33.786,18.206 "/>
<path fill-rule="evenodd" clip-rule="evenodd" fill="#FFFFFF" d="M39.822,18.206l-1.143-1.634c0.559-0.225,0.951-0.654,0.951-1.258
	c0-0.691-0.427-1.256-1.628-1.256h-2.625l0.264,0.31v3.527l-0.264,0.31h1.761l-0.265-0.31v-1.178h0.529l0.809,1.178l-0.265,0.31
	H39.822L39.822,18.206z M38.371,15.402c0,0.297-0.29,0.54-0.696,0.54h-0.802v-1.021h0.954
	C38.104,14.922,38.371,15.059,38.371,15.402L38.371,15.402z"/>
<path fill="#FFFFFF" d="M45.152,16.993c0-0.66-0.539-1.026-1.313-1.274c-0.503-0.157-1.218-0.267-1.218-0.597
	c0-0.163,0.194-0.273,0.537-0.273c0.453,0,1.197,0.187,1.778,0.459v-1.386l-0.333,0.317c-0.354-0.142-0.966-0.294-1.388-0.294
	c-1.433,0-1.893,0.624-1.893,1.191c0,0.77,0.516,1.105,1.331,1.386c0.603,0.205,1.167,0.223,1.167,0.565
	c0,0.294-0.347,0.33-0.524,0.33c-0.448,0-1.243-0.155-1.951-0.612v1.538l0.335-0.36c0.327,0.123,1.067,0.335,1.671,0.335
	C44.598,18.317,45.152,17.777,45.152,16.993L45.152,16.993z"/>
<path fill-rule="evenodd" clip-rule="evenodd" fill="#FFFFFF" d="M51.448,18.206l-2.068-4.148h-1.423l0.152,0.31l-1.873,3.838h1.544
	l-0.264-0.31l0.208-0.437h2.006l0.202,0.437l-0.267,0.31H51.448L51.448,18.206z M49.424,16.713h-1.394l0.692-1.486L49.424,16.713
	L49.424,16.713z"/>
<polygon fill="#FFFFFF" points="56.437,18.206 56.437,17.083 56.12,17.342 54.094,17.342 54.094,14.368 54.361,14.058 
	52.601,14.058 52.866,14.368 52.866,17.896 52.601,18.206 56.437,18.206 "/>
<path fill="#FFFFFF" d="M55.316,14.634c0,0.288,0.235,0.525,0.53,0.525c0.294,0,0.53-0.237,0.53-0.525
	c0-0.292-0.237-0.527-0.53-0.527C55.551,14.107,55.316,14.342,55.316,14.634L55.316,14.634z M55.258,14.634
	c0-0.321,0.264-0.581,0.589-0.581c0.323,0,0.585,0.26,0.585,0.581c0,0.319-0.262,0.58-0.585,0.58
	C55.521,15.214,55.258,14.952,55.258,14.634L55.258,14.634z"/>
<path fill-rule="evenodd" clip-rule="evenodd" fill="#FFFFFF" d="M56.066,14.406c-0.058-0.05-0.127-0.07-0.204-0.07
	c-0.173,0-0.3,0.132-0.3,0.297c0,0.17,0.125,0.302,0.299,0.302c0.08,0,0.153-0.028,0.215-0.078v-0.075
	c-0.057,0.063-0.132,0.103-0.217,0.103c-0.138,0-0.24-0.12-0.24-0.252c0-0.129,0.103-0.244,0.242-0.244
	c0.083,0,0.15,0.032,0.205,0.09V14.406L56.066,14.406z"/>
<g>
	<path fill="#FFFFFF" d="M8.196,33.414v1.688c0,0.828-0.464,1.148-1.504,1.148s-1.504-0.32-1.504-1.148v-1.688L5,33.189h1.265
		l-0.188,0.225v1.661c0,0.374,0.247,0.531,0.616,0.531s0.617-0.158,0.617-0.531v-1.661L7.12,33.189h1.265L8.196,33.414z"/>
	<path fill="#FFFFFF" d="M12.484,33.414v2.777H11.81l-1.625-1.765v1.54l0.188,0.225H9.307l0.189-0.225v-2.552l-0.189-0.225h0.959
		l1.53,1.738v-1.513l-0.189-0.225h1.067L12.484,33.414z"/>
	<path fill="#FFFFFF" d="M13.775,36.192l0.189-0.225v-2.552l-0.189-0.225h1.274l-0.189,0.225v2.552l0.189,0.225H13.775z"/>
	<path fill="#FFFFFF" d="M17.885,36.192h-0.626l-1.399-3.002h1.26l-0.188,0.225l0.729,1.652l0.757-1.652l-0.189-0.225h1.071
		L17.885,36.192z"/>
	<path fill="#FFFFFF" d="M20.17,36.192l0.189-0.225v-2.552l-0.189-0.225h2.827v0.815l-0.226-0.189h-1.535v0.576h0.973l0.221-0.189
		v0.977l-0.221-0.189h-0.973v0.576h1.535l0.226-0.189v0.815H20.17z"/>
	<path fill="#FFFFFF" d="M25.856,36.192l0.189-0.225l-0.576-0.851h-0.379v0.851l0.189,0.225h-1.256l0.189-0.225v-2.552l-0.189-0.225
		h1.873c0.854,0,1.161,0.41,1.161,0.909c0,0.437-0.279,0.748-0.68,0.909l0.814,1.184H25.856z M25.77,33.815h-0.68v0.738h0.572
		c0.288,0,0.495-0.175,0.495-0.392C26.158,33.914,25.969,33.815,25.77,33.815z"/>
	<path fill="#FFFFFF" d="M29.451,36.273c-0.432,0-0.959-0.153-1.192-0.243l-0.239,0.261v-1.112c0.505,0.329,1.071,0.441,1.392,0.441
		c0.126,0,0.373-0.027,0.373-0.238c0-0.248-0.4-0.261-0.832-0.41c-0.581-0.203-0.95-0.446-0.95-1.004c0-0.41,0.328-0.86,1.351-0.86
		c0.302,0,0.738,0.108,0.99,0.211l0.238-0.229v1.004c-0.414-0.198-0.945-0.333-1.27-0.333c-0.243,0-0.382,0.081-0.382,0.198
		c0,0.238,0.508,0.319,0.868,0.432c0.554,0.18,0.937,0.446,0.937,0.923C30.734,35.881,30.338,36.273,29.451,36.273z"/>
	<path fill="#FFFFFF" d="M33.902,36.192l0.189-0.225l-0.145-0.315h-1.431l-0.149,0.315l0.189,0.225h-1.103l1.337-2.777l-0.108-0.225
		h1.013l1.477,3.002H33.902z M33.228,34.035l-0.495,1.076h0.994L33.228,34.035z"/>
	<path fill="#FFFFFF" d="M35.936,36.192l0.189-0.225v-2.552l-0.189-0.225h1.256l-0.189,0.225v2.152h1.445l0.226-0.189v0.815H35.936z
		"/>
	<path fill="#FFFFFF" d="M44.31,36.192l0.189-0.225v-1.44l-0.797,1.666h-0.419l-0.9-1.692v1.467l0.189,0.225h-1.04l0.189-0.225
		v-2.552l-0.189-0.225h1.058l0.977,1.836l0.892-1.836h1.08l-0.188,0.225v2.552l0.188,0.225H44.31z"/>
	<path fill="#FFFFFF" d="M49.746,33.414v1.688c0,0.828-0.464,1.148-1.504,1.148s-1.504-0.32-1.504-1.148v-1.688l-0.188-0.225h1.265
		l-0.188,0.225v1.661c0,0.374,0.247,0.531,0.616,0.531s0.616-0.158,0.616-0.531v-1.661l-0.188-0.225h1.265L49.746,33.414z"/>
	<path fill="#FFFFFF" d="M52.283,36.273c-0.432,0-0.959-0.153-1.192-0.243l-0.239,0.261v-1.112c0.505,0.329,1.071,0.441,1.392,0.441
		c0.126,0,0.373-0.027,0.373-0.238c0-0.248-0.4-0.261-0.832-0.41c-0.581-0.203-0.95-0.446-0.95-1.004c0-0.41,0.328-0.86,1.351-0.86
		c0.302,0,0.738,0.108,0.99,0.211l0.238-0.229v1.004c-0.414-0.198-0.945-0.333-1.27-0.333c-0.243,0-0.382,0.081-0.382,0.198
		c0,0.238,0.508,0.319,0.868,0.432c0.554,0.18,0.937,0.446,0.937,0.923C53.566,35.881,53.17,36.273,52.283,36.273z"/>
	<path fill="#FFFFFF" d="M54.556,36.192l0.189-0.225v-2.552l-0.189-0.225h1.274l-0.189,0.225v2.552l0.189,0.225H54.556z"/>
	<path fill="#FFFFFF" d="M58.557,36.25c-0.913,0-1.737-0.45-1.737-1.562c0-0.878,0.63-1.558,1.773-1.558
		c0.347,0,0.721,0.081,0.932,0.162l0.207-0.198v0.999c-0.324-0.198-0.666-0.315-1.089-0.315c-0.635,0-0.883,0.423-0.883,0.909
		c0,0.544,0.36,0.914,0.909,0.914c0.554,0,0.887-0.216,1.067-0.329v0.703C59.52,36.102,59.003,36.25,58.557,36.25z"/>
</g>
<g>
	<path fill="#FFFFFF" d="M89.769,15.649v7.313c0,3.588-2.009,4.973-6.514,4.973s-6.513-1.384-6.513-4.973v-7.313l-0.819-0.975h5.479
		l-0.818,0.975v7.196c0,1.618,1.072,2.301,2.671,2.301c1.6,0,2.672-0.683,2.672-2.301v-7.196l-0.819-0.975h5.48L89.769,15.649z"/>
	<path fill="#FFFFFF" d="M108.352,15.649V27.68h-2.925l-7.04-7.645v6.669l0.819,0.975h-4.621l0.818-0.975V15.649l-0.818-0.975h4.153
		l6.63,7.527v-6.552l-0.818-0.975h4.621L108.352,15.649z"/>
	<path fill="#FFFFFF" d="M113.947,27.68l0.819-0.975V15.649l-0.819-0.975h5.52l-0.819,0.975v11.057l0.819,0.975H113.947z"/>
	<path fill="#FFFFFF" d="M131.751,27.68h-2.711l-6.064-13.007h5.46l-0.818,0.975l3.158,7.157l3.276-7.157l-0.818-0.975h4.641
		L131.751,27.68z"/>
	<path fill="#FFFFFF" d="M141.652,27.68l0.818-0.975V15.649l-0.818-0.975h12.246v3.529l-0.975-0.819h-6.65v2.496h4.212l0.956-0.819
		v4.231l-0.956-0.819h-4.212v2.496h6.65l0.975-0.819v3.53H141.652z"/>
	<path fill="#FFFFFF" d="M166.297,27.68l0.819-0.975l-2.496-3.686h-1.639v3.686l0.819,0.975h-5.44l0.818-0.975V15.649l-0.818-0.975
		h8.112c3.705,0,5.031,1.774,5.031,3.939c0,1.892-1.21,3.237-2.945,3.939l3.53,5.129H166.297z M165.926,17.384h-2.944v3.198h2.477
		c1.248,0,2.146-0.761,2.146-1.697C167.604,17.813,166.784,17.384,165.926,17.384z"/>
	<path fill="#FFFFFF" d="M181.877,28.031c-1.872,0-4.154-0.663-5.168-1.053l-1.033,1.131v-4.817
		c2.184,1.424,4.641,1.911,6.025,1.911c0.546,0,1.618-0.117,1.618-1.034c0-1.072-1.735-1.131-3.607-1.774
		c-2.516-0.877-4.114-1.931-4.114-4.349c0-1.774,1.423-3.725,5.85-3.725c1.307,0,3.198,0.468,4.29,0.917l1.034-0.995v4.349
		c-1.794-0.858-4.096-1.443-5.499-1.443c-1.054,0-1.658,0.351-1.658,0.858c0,1.034,2.204,1.385,3.764,1.872
		c2.398,0.78,4.057,1.931,4.057,3.998C187.435,26.335,185.719,28.031,181.877,28.031z"/>
	<path fill="#FFFFFF" d="M201.162,27.68l0.818-0.975l-0.624-1.365h-6.201l-0.644,1.365l0.819,0.975h-4.777l5.791-12.032
		l-0.468-0.975h4.388l6.396,13.007H201.162z M198.236,18.34L196.092,23h4.31L198.236,18.34z"/>
	<path fill="#FFFFFF" d="M209.976,27.68l0.818-0.975V15.649l-0.818-0.975h5.44l-0.819,0.975v9.321h6.26l0.976-0.819v3.53H209.976z"
		/>
	<path fill="#FFFFFF" d="M246.264,27.68l0.819-0.975v-6.24l-3.452,7.215h-1.813l-3.899-7.332v6.357l0.818,0.975h-4.504l0.818-0.975
		V15.649l-0.818-0.975h4.582l4.231,7.956l3.861-7.956h4.681l-0.819,0.975v11.057l0.819,0.975H246.264z"/>
	<path fill="#FFFFFF" d="M269.82,15.649v7.313c0,3.588-2.009,4.973-6.514,4.973c-4.504,0-6.513-1.384-6.513-4.973v-7.313
		l-0.819-0.975h5.479l-0.818,0.975v7.196c0,1.618,1.072,2.301,2.671,2.301c1.6,0,2.672-0.683,2.672-2.301v-7.196l-0.819-0.975h5.48
		L269.82,15.649z"/>
	<path fill="#FFFFFF" d="M280.818,28.031c-1.872,0-4.154-0.663-5.168-1.053l-1.033,1.131v-4.817
		c2.184,1.424,4.641,1.911,6.025,1.911c0.546,0,1.618-0.117,1.618-1.034c0-1.072-1.735-1.131-3.607-1.774
		c-2.516-0.877-4.114-1.931-4.114-4.349c0-1.774,1.423-3.725,5.85-3.725c1.307,0,3.198,0.468,4.29,0.917l1.034-0.995v4.349
		c-1.794-0.858-4.096-1.443-5.499-1.443c-1.054,0-1.658,0.351-1.658,0.858c0,1.034,2.204,1.385,3.764,1.872
		c2.398,0.78,4.057,1.931,4.057,3.998C286.376,26.335,284.66,28.031,280.818,28.031z"/>
	<path fill="#FFFFFF" d="M290.665,27.68l0.819-0.975V15.649l-0.819-0.975h5.52l-0.819,0.975v11.057l0.819,0.975H290.665z"/>
	<path fill="#FFFFFF" d="M308.001,27.934c-3.959,0-7.527-1.95-7.527-6.767c0-3.803,2.729-6.748,7.683-6.748
		c1.502,0,3.12,0.351,4.037,0.702l0.896-0.858v4.329c-1.403-0.858-2.886-1.365-4.719-1.365c-2.75,0-3.822,1.833-3.822,3.939
		c0,2.359,1.561,3.958,3.939,3.958c2.398,0,3.842-0.936,4.621-1.423v3.042C312.174,27.29,309.932,27.934,308.001,27.934z"/>
	<path fill="#FFFFFF" d="M335.281,15.649v7.254c0,3.062-1.833,5.031-6.416,5.031c-0.721,0-2.203-0.234-2.71-0.487v-3.354
		l0.955,0.917c0.507,0.175,1.132,0.234,1.755,0.234c1.6,0,2.613-0.78,2.613-2.165v-7.43l-0.818-0.975h5.44L335.281,15.649z"/>
	<path fill="#FFFFFF" d="M349.3,27.68l0.818-0.975l-0.624-1.365h-6.201l-0.644,1.365l0.819,0.975h-4.777l5.791-12.032l-0.468-0.975
		h4.388l6.396,13.007H349.3z M346.374,18.34L344.229,23h4.31L346.374,18.34z"/>
	<path fill="#FFFFFF" d="M364.997,23.897h-2.263v2.808l0.819,0.975h-5.44l0.818-0.975V15.649l-0.818-0.975h7
		c2.574,0,6.143,0.721,6.143,4.31C371.256,23.078,368.117,23.897,364.997,23.897z M364.919,17.384h-2.185v3.939h1.833
		c1.755,0,2.73-0.448,2.73-2.106C367.298,17.774,366.303,17.384,364.919,17.384z"/>
	<path fill="#FFFFFF" d="M383.089,27.68l0.818-0.975l-0.624-1.365h-6.201l-0.644,1.365l0.819,0.975h-4.777l5.791-12.032
		l-0.468-0.975h4.388l6.396,13.007H383.089z M380.163,18.34L378.019,23h4.31L380.163,18.34z"/>
	<path fill="#FFFFFF" d="M405.67,15.649V27.68h-2.926l-7.04-7.645v6.669l0.819,0.975h-4.621l0.818-0.975V15.649l-0.818-0.975h4.153
		l6.63,7.527v-6.552l-0.818-0.975h4.621L405.67,15.649z"/>
</g>
<g>
</g>
<g>
</g>
<g>
</g>
<g>
</g>
<g>
</g>
<g>
</g>
</svg>
